<?xml version="1.0" encoding="utf-8"?>
<svg version="1.1" xmlns:xlink="http://www.w3.org/1999/xlink" width="126px" height="126px" xmlns="http://www.w3.org/2000/svg">
  <g transform="matrix(1 0 0 1 -10 -10 )">
    <path d="M 10 10  L 136 10  L 136 136  L 10 136  L 10 10  " fill-rule="nonzero" fill="#cccccc" stroke="none" />
    <path d="M 19 19  L 127 19  L 127 127  L 19 127  L 19 19  " fill-rule="nonzero" fill="#ffffff" stroke="none" />
    <path d="M 84.97 47.8  C 79.678 47.8  75.52 43.642  75.52 38.35  C 75.52 33.058  79.678 28.9  84.97 28.9  C 90.262 28.9  94.42 33.058  94.42 38.35  C 94.42 43.642  90.262 47.8  84.97 47.8  " fill-rule="nonzero" fill="#cccccc" stroke="none" />
    <path d="M 22 124  L 22 67.9  L 47.5 42.4  L 83.2 62.8  L 103.6 57.7  L 124 62.8  L 124 124  L 22 124  " fill-rule="nonzero" fill="#169bd5" stroke="none" />
  </g>
</svg>