<?xml version="1.0" encoding="utf-8"?>
<svg version="1.1" xmlns:xlink="http://www.w3.org/1999/xlink" width="28px" height="28px" xmlns="http://www.w3.org/2000/svg">
  <g transform="matrix(1 0 0 1 -100 -20 )">
    <path d="M 11.6666666666667 21.6927083333333  C 11.9826388888889 21.6927083333333  12.2560763888889 21.5772569444444  12.4869791666667 21.3463541666667  L 23.6796875 10.1536458333333  C 23.9105902777778 9.92274305555555  24.0260416666667 9.64930555555555  24.0260416666667 9.33333333333333  C 24.0260416666667 9.01736111111111  23.9105902777778 8.74392361111111  23.6796875 8.51302083333333  L 21.8203125 6.65364583333333  C 21.5894097222222 6.42274305555555  21.3159722222222 6.30729166666667  21 6.30729166666667  C 20.6840277777778 6.30729166666667  20.4105902777778 6.42274305555555  20.1796875 6.65364583333333  L 11.6666666666667 15.1666666666667  L 7.8203125 11.3203125  C 7.58940972222222 11.0894097222222  7.31597222222222 10.9739583333333  7 10.9739583333333  C 6.68402777777778 10.9739583333333  6.41059027777778 11.0894097222222  6.1796875 11.3203125  L 4.3203125 13.1796875  C 4.08940972222222 13.4105902777778  3.97395833333333 13.6840277777778  3.97395833333333 14  C 3.97395833333333 14.3159722222222  4.08940972222222 14.5894097222222  4.3203125 14.8203125  L 10.8463541666667 21.3463541666667  C 11.0772569444444 21.5772569444444  11.3506944444444 21.6927083333333  11.6666666666667 21.6927083333333  Z M 26.4596354166667 1.54036458333333  C 27.4865451388889 2.56727430555555  28 3.80381944444444  28 5.25  L 28 22.75  C 28 24.1961805555556  27.4865451388889 25.4327256944444  26.4596354166667 26.4596354166667  C 25.4327256944444 27.4865451388889  24.1961805555556 28  22.75 28  L 5.25 28  C 3.80381944444444 28  2.56727430555556 27.4865451388889  1.54036458333333 26.4596354166667  C 0.513454861111111 25.4327256944444  0 24.1961805555556  0 22.75  L 0 5.25  C 0 3.80381944444444  0.513454861111111 2.56727430555555  1.54036458333333 1.54036458333333  C 2.56727430555556 0.513454861111109  3.80381944444444 0  5.25 0  L 22.75 0  C 24.1961805555556 0  25.4327256944444 0.513454861111109  26.4596354166667 1.54036458333333  Z " fill-rule="nonzero" fill="#555555" stroke="none" transform="matrix(1 0 0 1 100 20 )" />
  </g>
</svg>