<?xml version="1.0" encoding="utf-8"?>
<svg version="1.1" xmlns:xlink="http://www.w3.org/1999/xlink" width="26px" height="26px" xmlns="http://www.w3.org/2000/svg">
  <g transform="matrix(1 0 0 1 -104 -16 )">
    <path d="M 21.3450520833333 14.8450520833333  C 21.5594618055556 14.6306423611111  21.6666666666667 14.3767361111111  21.6666666666667 14.0833333333333  L 21.6666666666667 11.9166666666667  C 21.6666666666667 11.6232638888889  21.5594618055556 11.3693576388889  21.3450520833333 11.1549479166667  C 21.1306423611111 10.9405381944444  20.8767361111111 10.8333333333333  20.5833333333333 10.8333333333333  L 15.1666666666667 10.8333333333333  L 15.1666666666667 5.41666666666667  C 15.1666666666667 5.12326388888889  15.0594618055556 4.86935763888889  14.8450520833333 4.65494791666667  C 14.6306423611111 4.44053819444444  14.3767361111111 4.33333333333333  14.0833333333333 4.33333333333333  L 11.9166666666667 4.33333333333333  C 11.6232638888889 4.33333333333333  11.3693576388889 4.44053819444444  11.1549479166667 4.65494791666667  C 10.9405381944444 4.86935763888889  10.8333333333333 5.12326388888889  10.8333333333333 5.41666666666667  L 10.8333333333333 10.8333333333333  L 5.41666666666667 10.8333333333333  C 5.12326388888889 10.8333333333333  4.86935763888889 10.9405381944444  4.65494791666667 11.1549479166667  C 4.44053819444444 11.3693576388889  4.33333333333333 11.6232638888889  4.33333333333333 11.9166666666667  L 4.33333333333333 14.0833333333333  C 4.33333333333333 14.3767361111111  4.44053819444444 14.6306423611111  4.65494791666667 14.8450520833333  C 4.86935763888889 15.0594618055556  5.12326388888889 15.1666666666667  5.41666666666667 15.1666666666667  L 10.8333333333333 15.1666666666667  L 10.8333333333333 20.5833333333333  C 10.8333333333333 20.8767361111111  10.9405381944444 21.1306423611111  11.1549479166667 21.3450520833333  C 11.3693576388889 21.5594618055556  11.6232638888889 21.6666666666667  11.9166666666667 21.6666666666667  L 14.0833333333333 21.6666666666667  C 14.3767361111111 21.6666666666667  14.6306423611111 21.5594618055556  14.8450520833333 21.3450520833333  C 15.0594618055556 21.1306423611111  15.1666666666667 20.8767361111111  15.1666666666667 20.5833333333333  L 15.1666666666667 15.1666666666667  L 20.5833333333333 15.1666666666667  C 20.8767361111111 15.1666666666667  21.1306423611111 15.0594618055556  21.3450520833333 14.8450520833333  Z M 24.5696614583333 1.43033854166667  C 25.5232204861111 2.38389756944444  26 3.53211805555555  26 4.875  L 26 21.125  C 26 22.4678819444444  25.5232204861111 23.6161024305556  24.5696614583333 24.5696614583333  C 23.6161024305556 25.5232204861111  22.4678819444444 26  21.125 26  L 4.875 26  C 3.53211805555556 26  2.38389756944444 25.5232204861111  1.43033854166667 24.5696614583333  C 0.476779513888889 23.6161024305556  0 22.4678819444444  0 21.125  L 0 4.875  C 0 3.53211805555555  0.476779513888889 2.38389756944444  1.43033854166667 1.43033854166667  C 2.38389756944444 0.476779513888887  3.53211805555556 0  4.875 0  L 21.125 0  C 22.4678819444444 0  23.6161024305556 0.476779513888887  24.5696614583333 1.43033854166667  Z " fill-rule="nonzero" fill="#000000" stroke="none" transform="matrix(1 0 0 1 104 16 )" />
  </g>
</svg>