<?xml version="1.0" encoding="utf-8"?>
<svg version="1.1" xmlns:xlink="http://www.w3.org/1999/xlink" width="36px" height="35px" xmlns="http://www.w3.org/2000/svg">
  <g transform="matrix(1 0 0 1 -209 -210 )">
    <path d="M 24.5985576923077 21.4366729678639  L 25.6586538461538 20.4001260239445  L 31.21875 14.8865784499055  L 23.5168269230769 13.7397605545054  L 22.0889423076923 13.5192186515438  L 21.4399038461538 12.1959672337744  L 18 5.0945179584121  L 18 26.3327032136106  L 19.2764423076923 27.0163831127914  L 26.15625 30.7214870825457  L 24.8581730769231 22.8922495274102  L 24.5985576923077 21.4366729678639  Z M 35.9567307692308 13.3097038437303  C 36.0865384615385 13.7140306658265  35.9134615384615 14.1514387733669  35.4375 14.6219281663516  L 27.5841346153846 22.4291115311909  L 29.4447115384615 33.4562066792691  C 29.5168269230769 33.9413988657845  29.4735576923077 34.3199957992018  29.3149038461538 34.5919974795211  C 29.15625 34.8639991598404  28.9110576923077 35  28.5793269230769 35  C 28.3341346153846 35  28.0456730769231 34.9117832388154  27.7139423076923 34.7353497164461  L 18 29.5305608065532  L 8.28605769230769 34.7353497164461  C 7.95432692307692 34.9117832388154  7.66586538461539 35  7.42067307692308 35  C 7.08894230769231 35  6.84375 34.8639991598404  6.68509615384615 34.5919974795211  C 6.52644230769231 34.3199957992018  6.48317307692308 33.9413988657845  6.55528846153846 33.4562066792691  L 8.41586538461539 22.4291115311909  L 0.540865384615385 14.6219281663516  C 0.079326923076923 14.1514387733669  -0.0865384615384615 13.7140306658265  0.0432692307692308 13.3097038437303  C 0.173076923076923 12.9053770216341  0.5625 12.6517538332283  1.21153846153846 12.5488342785129  L 12.0721153846154 10.9388783868935  L 16.9399038461538 0.904221802142405  C 17.2283653846154 0.3014072673808  17.5817307692308 0  18 0  C 18.4038461538462 0  18.7572115384615 0.3014072673808  19.0600961538462 0.904221802142405  L 23.9278846153846 10.9388783868935  L 34.7884615384615 12.5488342785129  C 35.4375 12.6517538332283  35.8269230769231 12.9053770216341  35.9567307692308 13.3097038437303  Z " fill-rule="nonzero" fill="#ffff80" stroke="none" transform="matrix(1 0 0 1 209 210 )" />
  </g>
</svg>