<?xml version="1.0" encoding="utf-8"?>
<svg version="1.1" xmlns:xlink="http://www.w3.org/1999/xlink" width="33px" height="31px" xmlns="http://www.w3.org/2000/svg">
  <g transform="matrix(1 0 0 1 -10 -14 )">
    <path d="M 28.2565055762082 17.7108339828527  C 28.270136307311 17.7430501428943  28.2769516728625 17.7913743829566  28 17.8558067030398  L 28 29.4536243180047  C 28.2769516728625 29.8724343985451  28.1474597273854 30.2348661990127  27.8884758364312 30.5409197194076  C 27.6294919454771 30.8469732398025  27.322800495663 31  26.9684014869888 31  L 19.1171003717472 31  L 19.1171003717472 21.7217459080281  L 13.8828996282528 21.7217459080281  L 13.8828996282528 31  L 6.03159851301115 31  C 5.67719950433705 31  5.37050805452292 30.8469732398025  5.11152416356877 30.5409197194076  C 4.85254027261462 30.2348661990127  4.72304832713755 29.8724343985451  5 29.4536243180047  L 5 17.8558067030398  C 4.72304832713755 17.839698623019  4.72645600991326 17.8155365029878  4.73327137546468 17.7833203429462  C 4.74008674101611 17.7511041829047  4.74349442379182 17.7269420628735  4.74349442379182 17.7108339828527  L 16.5 6.25798908807482  L 28.2565055762082 17.7108339828527  Z M 32.9795539033457 15.6208106001559  C 32.9931846344486 15.8382696804365  32.9454770755886 16.0275396206807  32.8364312267658 16.1886204208885  L 31.5687732342007 17.9766173031956  C 31.4597273853779 18.1215900233827  31.316604708798 18.210184463497  31.139405204461 18.2424006235386  L 31.0780669144981 18.2424006235386  C 30.9008674101611 18.2424006235386  30.7577447335812 18.1860223434658  30.6486988847584 18.0732657833203  L 16.5 4.13172252533125  L 2.35130111524164 18.0732657833203  C 2.18773234200743 18.2021304234866  2.02416356877323 18.2585087035594  1.86059479553903 18.2424006235386  C 1.68339529120198 18.210184463497  1.54027261462206 18.1215900233827  1.43122676579926 17.9766173031956  L 0.163568773234201 16.1886204208885  C 0.0545229244114003 16.0275396206807  0.00681536555142508 15.8382696804365  0.0204460966542751 15.6208106001559  C 0.0340768277571253 15.4033515198753  0.109045848822801 15.2301896596519  0.245353159851301 15.1013250194856  L 14.9460966542751 0.628215120810601  C 15.3822800495663 0.209405040270197  15.9002478314746 0  16.5 0  C 17.0997521685254 0  17.6177199504337 0.209405040270197  18.0539033457249 0.628215120810601  L 23.042750929368 5.55728760717069  L 23.042750929368 0.845674201091191  C 23.042750929368 0.620161080800204  23.1040892193309 0.434918160561183  23.2267657992565 0.289945440374125  C 23.3494423791822 0.144972720187062  23.5061957868649 0.0724863600935312  23.6970260223048 0.0724863600935312  L 27.6226765799257 0.0724863600935312  C 27.8135068153656 0.0724863600935312  27.9702602230483 0.144972720187062  28.092936802974 0.289945440374125  C 28.2156133828996 0.434918160561183  28.2769516728625 0.620161080800204  28.2769516728625 0.845674201091191  L 28.2769516728625 10.7038191738114  L 32.7546468401487 15.1013250194856  C 32.8909541511772 15.2301896596519  32.9659231722429 15.4033515198753  32.9795539033457 15.6208106001559  Z " fill-rule="nonzero" fill="#aaaaaa" stroke="none" transform="matrix(1 0 0 1 10 14 )" />
  </g>
</svg>