<?xml version="1.0" encoding="utf-8"?>
<svg version="1.1" xmlns:xlink="http://www.w3.org/1999/xlink" width="46px" height="45px" xmlns="http://www.w3.org/2000/svg">
  <defs>
    <filter x="23px" y="9px" width="46px" height="45px" filterUnits="userSpaceOnUse" id="filter15">
      <feOffset dx="0" dy="0" in="SourceAlpha" result="shadowOffsetInner" />
      <feGaussianBlur stdDeviation="2.5" in="shadowOffsetInner" result="shadowGaussian" />
      <feComposite in2="shadowGaussian" operator="atop" in="SourceAlpha" result="shadowComposite" />
      <feColorMatrix type="matrix" values="0 0 0 0 0.96078431372549  0 0 0 0 0.603921568627451  0 0 0 0 0.137254901960784  0 0 0 0.313725490196078 0  " in="shadowComposite" />
    </filter>
    <g id="widget16">
      <path d="M 34.7884615384615 12.5488342785129  C 35.5961538461538 12.6811594202899  36 13.0193236714976  36 13.5633270321361  C 36 13.8867884898131  35.8125 14.2396555345516  35.4375 14.6219281663516  L 27.5841346153846 22.4291115311909  L 29.4447115384615 33.4562066792691  C 29.4591346153846 33.5591262339845  29.4663461538462 33.7061541692922  29.4663461538462 33.8972904851922  C 29.4663461538462 34.2060491493384  29.390625 34.4670237345096  29.2391826923077 34.6802142407057  C 29.0877403846154 34.8934047469019  28.8677884615385 35  28.5793269230769 35  C 28.3052884615385 35  28.0168269230769 34.9117832388154  27.7139423076923 34.7353497164461  L 18 29.5305608065532  L 8.28605769230769 34.7353497164461  C 7.96875 34.9117832388154  7.68028846153846 35  7.42067307692308 35  C 7.11778846153846 35  6.890625 34.8934047469019  6.73918269230769 34.6802142407057  C 6.58774038461539 34.4670237345096  6.51201923076923 34.2060491493384  6.51201923076923 33.8972904851922  C 6.51201923076923 33.8090737240076  6.52644230769231 33.6620457886998  6.55528846153846 33.4562066792691  L 8.41586538461539 22.4291115311909  L 0.540865384615385 14.6219281663516  C 0.180288461538462 14.2249527410208  0 13.8720856962823  0 13.5633270321361  C 0 13.0193236714976  0.403846153846154 12.6811594202899  1.21153846153846 12.5488342785129  L 12.0721153846154 10.9388783868935  L 16.9399038461538 0.904221802142405  C 17.2139423076923 0.3014072673808  17.5673076923077 0  18 0  C 18.4326923076923 0  18.7860576923077 0.3014072673808  19.0600961538462 0.904221802142405  L 23.9278846153846 10.9388783868935  L 34.7884615384615 12.5488342785129  Z " fill-rule="nonzero" fill="#555555" stroke="none" transform="matrix(1 0 0 1 28 14 )" />
    </g>
  </defs>
  <g transform="matrix(1 0 0 1 -23 -9 )">
    <use xlink:href="#widget16" filter="url(#filter15)" />
    <use xlink:href="#widget16" />
  </g>
</svg>