<?xml version="1.0" encoding="utf-8"?>
<svg version="1.1" xmlns:xlink="http://www.w3.org/1999/xlink" width="30px" height="27px" xmlns="http://www.w3.org/2000/svg">
  <g transform="matrix(1 0 0 1 -260 -17 )">
    <path d="M 29.62890625 22.00078125  C 29.8763020833333 22.26796875  30 22.584375  30 22.95  L 30 25.65  C 30 26.015625  29.8763020833333 26.33203125  29.62890625 26.59921875  C 29.3815104166667 26.86640625  29.0885416666667 27  28.75 27  L 1.25 27  C 0.911458333333333 27  0.618489583333333 26.86640625  0.37109375 26.59921875  C 0.123697916666667 26.33203125  0 26.015625  0 25.65  L 0 22.95  C 0 22.584375  0.123697916666667 22.26796875  0.37109375 22.00078125  C 0.618489583333333 21.73359375  0.911458333333333 21.6  1.25 21.6  L 28.75 21.6  C 29.0885416666667 21.6  29.3815104166667 21.73359375  29.62890625 22.00078125  Z M 29.62890625 11.20078125  C 29.8763020833333 11.46796875  30 11.784375  30 12.15  L 30 14.85  C 30 15.215625  29.8763020833333 15.53203125  29.62890625 15.79921875  C 29.3815104166667 16.06640625  29.0885416666667 16.2  28.75 16  L 1.25 16  C 0.911458333333333 16.2  0.618489583333333 16.06640625  0.37109375 15.79921875  C 0.123697916666667 15.53203125  0 15.215625  0 14.85  L 0 12.15  C 0 11.784375  0.123697916666667 11.46796875  0.37109375 11.20078125  C 0.618489583333333 10.93359375  0.911458333333333 10.8  1.25 11  L 28.75 11  C 29.0885416666667 10.8  29.3815104166667 10.93359375  29.62890625 11.20078125  Z M 29.62890625 0.400781250000001  C 29.8763020833333 0.667968749999998  30 0.984374999999998  30 1.35  L 30 4.05  C 30 4.415625  29.8763020833333 4.73203125  29.62890625 4.99921875  C 29.3815104166667 5.26640625  29.0885416666667 5.4  28.75 5.4  L 1.25 5.4  C 0.911458333333333 5.4  0.618489583333333 5.26640625  0.37109375 4.99921875  C 0.123697916666667 4.73203125  0 4.415625  0 4.05  L 0 1.35  C 0 0.984374999999998  0.123697916666667 0.667968749999998  0.37109375 0.400781250000001  C 0.618489583333333 0.133593749999998  0.911458333333333 0  1.25 0  L 28.75 0  C 29.0885416666667 0  29.3815104166667 0.133593749999998  29.62890625 0.400781250000001  Z " fill-rule="nonzero" fill="#aaaaaa" stroke="none" transform="matrix(1 0 0 1 260 17 )" />
  </g>
</svg>