<?xml version="1.0" encoding="utf-8"?>
<svg version="1.1" xmlns:xlink="http://www.w3.org/1999/xlink" width="126px" height="126px" xmlns="http://www.w3.org/2000/svg">
  <g transform="matrix(1 0 0 1 -132 -18 )">
    <path d="M 103.8515625 53.40234375  C 104.8359375 52.41796875  105.328125 51.1875  105.328125 49.7109375  C 105.328125 48.1796875  104.8359375 46.921875  103.8515625 45.9375  L 96.38671875 38.5546875  C 95.34765625 37.515625  94.1171875 36.99609375  92.6953125 36.99609375  C 91.2734375 36.99609375  90.04296875 37.515625  89.00390625 38.5546875  L 55.53515625 71.94140625  L 36.99609375 53.40234375  C 35.95703125 52.36328125  34.7265625 51.84375  33.3046875 51.84375  C 31.8828125 51.84375  30.65234375 52.36328125  29.61328125 53.40234375  L 22.1484375 60.78515625  C 21.1640625 61.76953125  20.671875 63.02734375  20.671875 64.55859375  C 20.671875 66.03515625  21.1640625 67.265625  22.1484375 68.25  L 51.84375 97.9453125  C 52.8828125 98.984375  54.11328125 99.50390625  55.53515625 99.50390625  C 57.01171875 99.50390625  58.26953125 98.984375  59.30859375 97.9453125  L 103.8515625 53.40234375  Z M 117.55078125 31.376953125  C 123.18359375 41.029296875  126 51.5703125  126 63  C 126 74.4296875  123.18359375 84.970703125  117.55078125 94.623046875  C 111.91796875 104.275390625  104.275390625 111.91796875  94.623046875 117.55078125  C 84.970703125 123.18359375  74.4296875 126  63 126  C 51.5703125 126  41.029296875 123.18359375  31.376953125 117.55078125  C 21.724609375 111.91796875  14.08203125 104.275390625  8.44921875 94.623046875  C 2.81640625 84.970703125  0 74.4296875  0 63  C 0 51.5703125  2.81640625 41.029296875  8.44921875 31.376953125  C 14.08203125 21.724609375  21.724609375 14.08203125  31.376953125 8.44921874999999  C 41.029296875 2.81640624999999  51.5703125 0  63 0  C 74.4296875 0  84.970703125 2.81640624999999  94.623046875 8.44921874999999  C 104.275390625 14.08203125  111.91796875 21.724609375  117.55078125 31.376953125  Z " fill-rule="nonzero" fill="#f2f2f2" stroke="none" transform="matrix(1 0 0 1 132 18 )" />
  </g>
</svg>