<?xml version="1.0" encoding="utf-8"?>
<svg version="1.1" xmlns:xlink="http://www.w3.org/1999/xlink" width="136px" height="41px" xmlns="http://www.w3.org/2000/svg">
  <g transform="matrix(1 0 0 1 -82 -10 )">
    <path d="M 82 10  L 218 10  L 218 51  L 82 51  L 82 10  " fill-rule="nonzero" fill="#cccccc" stroke="none" />
    <path d="M 85 13  L 215 13  L 215 48  L 85 48  L 85 13  " fill-rule="nonzero" fill="#ffffff" stroke="none" />
    <path d="M 155.795 22.3  C 154.073 22.3  152.72 20.947  152.72 19.225  C 152.72 17.503  154.073 16.15  155.795 16.15  C 157.517 16.15  158.87 17.503  158.87 19.225  C 158.87 20.947  157.517 22.3  155.795 22.3  " fill-rule="nonzero" fill="#cccccc" stroke="none" />
    <path d="M 86 47  L 86 28.85  L 118 20.6  L 162.8 41.0308823529412  L 188.4 25.55  L 214 41.0308823529412  L 214 47  L 86 47  " fill-rule="nonzero" fill="#169bd5" stroke="none" />
  </g>
</svg>