<?xml version="1.0" encoding="utf-8"?>
<svg version="1.1" xmlns:xlink="http://www.w3.org/1999/xlink" width="420px" height="387px" xmlns="http://www.w3.org/2000/svg">
  <g>
    <path d="M 0 0  L 420 0  L 420 387  L 0 387  L 0 0  " fill-rule="nonzero" fill="#cccccc" stroke="none" />
    <path d="M 27 27  L 393 27  L 393 360  L 27 360  L 27 27  " fill-rule="nonzero" fill="#ffffff" stroke="none" />
    <path d="M 247.425 116.1  C 231.171 116.1  218.4 103.329  218.4 87.075  C 218.4 70.821  231.171 58.05  247.425 58.05  C 263.679 58.05  276.45 70.821  276.45 87.075  C 276.45 103.329  263.679 116.1  247.425 116.1  " fill-rule="nonzero" fill="#cccccc" stroke="none" />
    <path d="M 37 351  L 37 178.3  L 123.75 99.8  L 245.2 177.402857142857  L 314.6 146.9  L 384 177.402857142857  L 384 351  L 37 351  " fill-rule="nonzero" fill="#169bd5" stroke="none" />
  </g>
</svg>