<?xml version="1.0" encoding="utf-8"?>
<svg version="1.1" xmlns:xlink="http://www.w3.org/1999/xlink" width="78px" height="93px" xmlns="http://www.w3.org/2000/svg">
  <g transform="matrix(1 0 0 1 -156 -34 )">
    <path d="M 77.48203125 67.2373046875  C 77.82734375 70.2848307291667  78 73.5240885416667  78 76.955078125  C 78 81.3548177083333  76.73046875 85.12890625  74.19140625 88.27734375  C 71.65234375 91.42578125  68.5953125 93  65.0203125 93  L 12.9796875 93  C 9.4046875 93  6.34765625 91.42578125  3.80859375 88.27734375  C 1.26953125 85.12890625  0 81.3548177083333  0 76.955078125  C 0 73.5240885416667  0.17265625 70.2848307291667  0.51796875 67.2373046875  C 0.86328125 64.1897786458333  1.503125 61.1220703125  2.4375 58.0341796875  C 3.371875 54.9462890625  4.56015625 52.3024088541667  6.00234375 50.1025390625  C 7.44453125 47.9026692708333  9.35390625 46.1064453125  11.73046875 44.7138671875  C 14.10703125 43.3212890625  16.8390625 42.625  19.9265625 42.625  C 25.2484375 47.7916666666667  31.60625 50.375  39 50.375  C 46.39375 50.375  52.7515625 47.7916666666667  58.0734375 42.625  C 61.1609375 42.625  63.89296875 43.3212890625  66.26953125 44.7138671875  C 68.64609375 46.1064453125  70.55546875 47.9026692708333  71.99765625 50.1025390625  C 73.43984375 52.3024088541667  74.628125 54.9462890625  75.5625 58.0341796875  C 76.496875 61.1220703125  77.13671875 64.1897786458333  77.48203125 67.2373046875  Z M 55.54453125 6.8115234375  C 60.11484375 11.3525390625  62.4 16.83203125  62.4 23.25  C 62.4 29.66796875  60.11484375 35.1474609375  55.54453125 39.6884765625  C 50.97421875 44.2294921875  45.459375 46.5  39 46.5  C 32.540625 46.5  27.02578125 44.2294921875  22.45546875 39.6884765625  C 17.88515625 35.1474609375  15.6 29.66796875  15.6 23.25  C 15.6 16.83203125  17.88515625 11.3525390625  22.45546875 6.8115234375  C 27.02578125 2.2705078125  32.540625 0  39 0  C 45.459375 0  50.97421875 2.2705078125  55.54453125 6.8115234375  Z " fill-rule="nonzero" fill="#333333" stroke="none" transform="matrix(1 0 0 1 156 34 )" />
  </g>
</svg>