<?xml version="1.0" encoding="utf-8"?>
<svg version="1.1" xmlns:xlink="http://www.w3.org/1999/xlink" width="29px" height="28px" xmlns="http://www.w3.org/2000/svg">
  <g transform="matrix(1 0 0 1 -70 -289 )">
    <path d="M 28.0240384615385 10.0390674228103  C 28.6746794871795 10.1449275362319  29 10.4154589371981  29 10.8506616257089  C 29 11.1094307918504  28.8489583333333 11.3917244276412  28.546875 11.6975425330813  L 22.2205528846154 17.9432892249527  L 23.7193509615385 26.7649653434152  C 23.7309695512821 26.8473009871876  23.7367788461538 26.9649233354337  23.7367788461538 27.1178323881538  C 23.7367788461538 27.3648393194707  23.67578125 27.5736189876076  23.5537860576923 27.7441713925646  C 23.4317908653846 27.9147237975215  23.2546073717949 28  23.0222355769231 28  C 22.8014823717949 28  22.5691105769231 27.9294265910523  22.3251201923077 27.7882797731569  L 14.5 23.6244486452426  L 6.67487980769231 27.7882797731569  C 6.41927083333333 27.9294265910523  6.18689903846154 28  5.97776442307692 28  C 5.73377403846154 28  5.55078125 27.9147237975215  5.42878605769231 27.7441713925646  C 5.30679086538462 27.5736189876076  5.24579326923077 27.3648393194707  5.24579326923077 27.1178323881538  C 5.24579326923077 27.047258979206  5.25741185897436 26.9296366309599  5.28064903846154 26.7649653434152  L 6.77944711538462 17.9432892249527  L 0.435697115384615 11.6975425330813  C 0.145232371794872 11.3799621928166  0 11.0976685570258  0 10.8506616257089  C 0 10.4154589371981  0.325320512820513 10.1449275362319  0.975961538461538 10.0390674228103  L 9.72475961538462 8.75110270951481  L 13.6460336538462 0.723377441713924  C 13.8667868589744 0.24112581390464  14.1514423076923 0  14.5 0  C 14.8485576923077 0  15.1332131410256 0.24112581390464  15.3539663461538 0.723377441713924  L 19.2752403846154 8.75110270951481  L 28.0240384615385 10.0390674228103  Z " fill-rule="nonzero" fill="#ffffff" stroke="none" transform="matrix(1 0 0 1 70 289 )" />
  </g>
</svg>