<?xml version="1.0" encoding="utf-8"?>
<svg version="1.1" xmlns:xlink="http://www.w3.org/1999/xlink" width="330px" height="355px" xmlns="http://www.w3.org/2000/svg">
  <defs>
    <filter x="-15px" y="95px" width="330px" height="355px" filterUnits="userSpaceOnUse" id="filter9">
      <feOffset dx="0" dy="0" in="SourceAlpha" result="shadowOffsetInner" />
      <feGaussianBlur stdDeviation="7.5" in="shadowOffsetInner" result="shadowGaussian" />
      <feComposite in2="shadowGaussian" operator="atop" in="SourceAlpha" result="shadowComposite" />
      <feColorMatrix type="matrix" values="0 0 0 0 0  0 0 0 0 0  0 0 0 0 0  0 0 0 0.349019607843137 0  " in="shadowComposite" />
    </filter>
    <g id="widget10">
      <path d="M 0 110  L 300 110  L 300 435  L 0 435  L 0 110  " fill-rule="nonzero" fill="#cccccc" stroke="none" />
      <path d="M 21 131  L 279 131  L 279 414  L 21 414  L 21 131  " fill-rule="nonzero" fill="#ffffff" stroke="none" />
      <path d="M 178.5 203.75  C 165.9 203.75  156 193.85  156 181.25  C 156 168.65  165.9 158.75  178.5 158.75  C 191.1 158.75  201 168.65  201 181.25  C 201 193.85  191.1 203.75  178.5 203.75  " fill-rule="nonzero" fill="#cccccc" stroke="none" />
      <path d="M 29 407  L 29 259.6  L 89.75 192.6  L 174.8 246.2  L 223.4 232.8  L 272 246.2  L 272 407  L 29 407  " fill-rule="nonzero" fill="#169bd5" stroke="none" />
    </g>
  </defs>
  <g transform="matrix(1 0 0 1 15 -95 )">
    <use xlink:href="#widget10" filter="url(#filter9)" />
    <use xlink:href="#widget10" />
  </g>
</svg>