<?xml version="1.0" encoding="utf-8"?>
<svg version="1.1" xmlns:xlink="http://www.w3.org/1999/xlink" width="29px" height="44px" xmlns="http://www.w3.org/2000/svg">
  <g transform="matrix(1 0 0 1 -60 -501 )">
    <path d="M 19.6259765625 19.8515625  C 21.0419921875 18.4192708333334  21.75 16.6909722222222  21.75 14.6666666666666  C 21.75 12.6423611111111  21.0419921875 10.9140625  19.6259765625 9.48177083333331  C 18.2099609375 8.04947916666669  16.5013020833333 7.33333333333331  14.5 7.33333333333331  C 12.4986979166667 7.33333333333331  10.7900390625 8.04947916666669  9.3740234375 9.48177083333331  C 7.9580078125 10.9140625  7.25 12.6423611111111  7.25 14.6666666666666  C 7.25 16.6909722222222  7.9580078125 18.4192708333334  9.3740234375 19.8515625  C 10.7900390625 21.2838541666666  12.4986979166667 22  14.5 22  C 16.5013020833333 22  18.2099609375 21.2838541666666  19.6259765625 19.8515625  Z M 24.751953125 4.296875  C 27.583984375 7.16145833333331  29 10.6180555555555  29 14.6666666666666  C 29 16.7482638888889  28.6884765625 18.4574652777778  28.0654296875 19.7942708333334  L 17.7568359375 41.9661458333334  C 17.4547526041667 42.5963541666666  17.00634765625 43.0928819444445  16.41162109375 43.4557291666666  C 15.81689453125 43.8185763888889  15.1796875 44  14.5 44  C 13.8203125 44  13.18310546875 43.8185763888889  12.58837890625 43.4557291666666  C 11.99365234375 43.0928819444445  11.5546875 42.5963541666666  11.271484375 41.9661458333334  L 7.87450920325597 34.679898851824  L 0.9345703125 19.7942708333334  C 0.3115234375 18.4574652777778  0 16.7482638888889  0 14.6666666666666  C 0 10.6180555555555  1.416015625 7.16145833333331  4.248046875 4.296875  C 7.080078125 1.43229166666669  10.4973958333333 0  14.5 0  C 18.5026041666667 0  21.919921875 1.43229166666669  24.751953125 4.296875  Z " fill-rule="nonzero" fill="#ffffff" stroke="none" transform="matrix(1 0 0 1 60 501 )" />
  </g>
</svg>