<?xml version="1.0" encoding="utf-8"?>
<svg version="1.1" xmlns:xlink="http://www.w3.org/1999/xlink" width="33px" height="34px" xmlns="http://www.w3.org/2000/svg">
  <g transform="matrix(1 0 0 1 -10 -14 )">
    <path d="M 27.091796875 19.4127604166667  C 27.3639322916667 19.1323784722222  27.5 18.8003472222222  27.5 18.4166666666667  L 27.5 15.5833333333333  C 27.5 15.1996527777778  27.3639322916667 14.8676215277778  27.091796875 14.5872395833333  C 26.8196614583333 14.3068576388889  26.4973958333333 14.1666666666667  26.125 14.1666666666667  L 15.33984375 14.1666666666667  L 19.400390625 9.98307291666667  C 19.6725260416667 9.70269097222222  19.80859375 9.37065972222222  19.80859375 8.98697916666667  C 19.80859375 8.60329861111111  19.6725260416667 8.27126736111111  19.400390625 7.99088541666667  L 17.4453125 5.9765625  C 17.1875 5.7109375  16.865234375 5.578125  16.478515625 5.578125  C 16.091796875 5.578125  15.76953125 5.7109375  15.51171875 5.9765625  L 7.734375 13.9895833333333  L 5.779296875 16.00390625  C 5.521484375 16.26953125  5.392578125 16.6015625  5.392578125 17  C 5.392578125 17.3984375  5.521484375 17.73046875  5.779296875 17.99609375  L 7.734375 20.0104166666667  L 15.51171875 28.0234375  C 15.76953125 28.2890625  16.091796875 28.421875  16.478515625 28.421875  C 16.865234375 28.421875  17.1875 28.2890625  17.4453125 28.0234375  L 19.400390625 26.0091145833333  C 19.658203125 25.7434895833333  19.787109375 25.4114583333333  19.787109375 25.0130208333333  C 19.787109375 24.6145833333333  19.658203125 24.2825520833333  19.400390625 24.0169270833333  L 15.33984375 19.8333333333333  L 26.125 19.8333333333333  C 26.4973958333333 19.8333333333333  26.8196614583333 19.6931423611111  27.091796875 19.4127604166667  Z M 30.787109375 8.466796875  C 32.2623697916667 11.0713975694444  33 13.9157986111111  33 17  C 33 20.0842013888889  32.2623697916667 22.9286024305556  30.787109375 25.533203125  C 29.3118489583333 28.1378038194444  27.3102213541667 30.2000868055556  24.7822265625 31.7200520833333  C 22.2542317708333 33.2400173611111  19.4934895833333 34  16.5 34  C 13.5065104166667 34  10.7457682291667 33.2400173611111  8.2177734375 31.7200520833333  C 5.68977864583333 30.2000868055556  3.68815104166667 28.1378038194444  2.212890625 25.533203125  C 0.737630208333333 22.9286024305556  0 20.0842013888889  0 17  C 0 13.9157986111111  0.737630208333333 11.0713975694444  2.212890625 8.466796875  C 3.68815104166667 5.86219618055556  5.68977864583333 3.79991319444444  8.2177734375 2.27994791666667  C 10.7457682291667 0.759982638888886  13.5065104166667 0  16.5 0  C 19.4934895833333 0  22.2542317708333 0.759982638888886  24.7822265625 2.27994791666667  C 27.3102213541667 3.79991319444444  29.3118489583333 5.86219618055556  30.787109375 8.466796875  Z " fill-rule="nonzero" fill="#aaaaaa" stroke="none" transform="matrix(1 0 0 1 10 14 )" />
  </g>
</svg>