<?xml version="1.0" encoding="utf-8"?>
<svg version="1.1" xmlns:xlink="http://www.w3.org/1999/xlink" width="20px" height="20px" xmlns="http://www.w3.org/2000/svg">
  <g transform="matrix(1 0 0 1 -140 -196 )">
    <path d="M 150 196  C 155.6 196  160 200.4  160 206  C 160 211.6  155.6 216  150 216  C 144.4 216  140 211.6  140 206  C 140 200.4  144.4 196  150 196  Z " fill-rule="nonzero" fill="#009dd9" stroke="none" fill-opacity="0" />
    <path d="M 150 196.5  C 155.32 196.5  159.5 200.68  159.5 206  C 159.5 211.32  155.32 215.5  150 215.5  C 144.68 215.5  140.5 211.32  140.5 206  C 140.5 200.68  144.68 196.5  150 196.5  Z " stroke-width="1" stroke="#333333" fill="none" />
  </g>
</svg>