<?xml version="1.0" encoding="utf-8"?>
<svg version="1.1" xmlns:xlink="http://www.w3.org/1999/xlink" width="55px" height="55px" xmlns="http://www.w3.org/2000/svg">
  <g transform="matrix(1 0 0 1 -10 -10 )">
    <path d="M 10 10  L 65 10  L 65 65  L 10 65  L 10 10  " fill-rule="nonzero" fill="#cccccc" stroke="none" />
    <path d="M 14 14  L 61 14  L 61 61  L 14 61  L 14 14  " fill-rule="nonzero" fill="#ffffff" stroke="none" />
    <path d="M 42.725 26.5  C 40.415 26.5  38.6 24.685  38.6 22.375  C 38.6 20.065  40.415 18.25  42.725 18.25  C 45.035 18.25  46.85 20.065  46.85 22.375  C 46.85 24.685  45.035 26.5  42.725 26.5  " fill-rule="nonzero" fill="#cccccc" stroke="none" />
    <path d="M 16 60  L 16 35.8  L 27 24.8  L 42.4 33.6  L 51.2 31.4  L 60 33.6  L 60 60  L 16 60  " fill-rule="nonzero" fill="#c351e6" stroke="none" />
  </g>
</svg>