<?xml version="1.0" encoding="utf-8"?>
<svg version="1.1" xmlns:xlink="http://www.w3.org/1999/xlink" width="111px" height="111px" xmlns="http://www.w3.org/2000/svg">
  <defs>
    <filter x="-18px" y="-18px" width="111px" height="111px" filterUnits="userSpaceOnUse" id="filter5">
      <feOffset dx="0" dy="0" in="SourceAlpha" result="shadowOffsetInner" />
      <feGaussianBlur stdDeviation="14" in="shadowOffsetInner" result="shadowGaussian" />
      <feComposite in2="shadowGaussian" operator="atop" in="SourceAlpha" result="shadowComposite" />
      <feColorMatrix type="matrix" values="0 0 0 0 0.517647058823529  0 0 0 0 0  0 0 0 0 1  0 0 0 0.349019607843137 0  " in="shadowComposite" />
    </filter>
    <g id="widget6">
      <path d="M 10 10  L 65 10  L 65 65  L 10 65  L 10 10  " fill-rule="nonzero" fill="#cccccc" stroke="none" />
      <path d="M 14 14  L 61 14  L 61 61  L 14 61  L 14 14  " fill-rule="nonzero" fill="#ffffff" stroke="none" />
      <path d="M 42.725 26.5  C 40.415 26.5  38.6 24.685  38.6 22.375  C 38.6 20.065  40.415 18.25  42.725 18.25  C 45.035 18.25  46.85 20.065  46.85 22.375  C 46.85 24.685  45.035 26.5  42.725 26.5  " fill-rule="nonzero" fill="#cccccc" stroke="none" />
      <path d="M 16 60  L 16 35.8  L 27 24.8  L 42.4 33.6  L 51.2 31.4  L 60 33.6  L 60 60  L 16 60  " fill-rule="nonzero" fill="#c351e6" stroke="none" />
    </g>
  </defs>
  <g transform="matrix(1 0 0 1 18 18 )">
    <use xlink:href="#widget6" filter="url(#filter5)" />
    <use xlink:href="#widget6" />
  </g>
</svg>